<?xml version="1.0" encoding="UTF-8" standalone="no"?>
<svg viewBox="0 0 354.33841 354.3349" xmlns="http://www.w3.org/2000/svg">
<defs>
<linearGradient gradientUnits="userSpaceOnUse" id="linearGradient3212" x1="-390.28184" x2="-250.68368" y1="-45.04974" y2="449.99998">
<stop offset="0" stop-color="#fff"/>
<stop offset="1" stop-color="#fff" stop-opacity="0"/>
</linearGradient>
</defs>
<g transform="translate(531.49606,-166.53123)">
<path d="m-494.95562,166.53542h283.46468c25.01506.05784 34.42381,13.20484 34.3256,34.32542v282.35738c-.0804,32.10813-17.09182,37.6578-37.64746,37.64791h-283.46467c-22.05027-.05804-33.07116-11.55397-33.21859-34.32606v-284.57195c.26515-21.5262 9.96006-35.36353 36.54044-35.4327z" fill="#f60"/>
<path d="m-496.06298,201.96848v56.70291c125.16766-1e-005 226.73451,101.60028 226.76165,226.76166h56.70291c-.02718-156.45743-127.00083-283.4646-283.46456-283.46457zm0,85.05437v56.70292c78.24024,0 141.70728,63.46703 141.70728,141.70728h56.70291c0-109.53633-88.87384-198.4102-198.41019-198.4102zm70.86614,162.97713c0,19.55906-15.87402,35.43307-35.43307,35.43307s-35.43308-15.87401-35.43308-35.43307 15.87402-35.43307 35.43308-35.43307 35.43307,15.87401 35.43307,35.43307z" fill="#e6e6e6"/>
<path d="m-494.94661,166.53123c-26.58038.06917-36.2661,13.9113-36.53125,35.4375v248.03125c143.4932,51.62657 179.07803-247.15182 354.31251-141.71875v-107.40625c.00307-.66002.01569-1.32446 0-1.96875-.48625-19.97295-10.07916-32.31896-34.3125-32.375h-283.46876z" fill="url(#linearGradient3212)" opacity=".7"/>
</g>
</svg>
